<svg width="94" height="40" viewBox="0 0 94 40" fill="none" xmlns="http://www.w3.org/2000/svg">
<path d="M5.07955 15.4318V23H1.44886V9.90909H4.90909V12.2188H5.0625C5.35227 11.4574 5.83807 10.8551 6.51989 10.4119C7.2017 9.96307 8.02841 9.73864 9 9.73864C9.90909 9.73864 10.7017 9.9375 11.3778 10.3352C12.054 10.733 12.5795 11.3011 12.9545 12.0398C13.3295 12.7727 13.517 13.6477 13.517 14.6648V23H9.88636V15.3125C9.89205 14.5114 9.6875 13.8864 9.27273 13.4375C8.85795 12.983 8.28693 12.7557 7.55966 12.7557C7.07102 12.7557 6.6392 12.8608 6.2642 13.071C5.89489 13.2812 5.60511 13.5881 5.39489 13.9915C5.19034 14.3892 5.08523 14.8693 5.07955 15.4318ZM22.2933 23.2557C20.9695 23.2557 19.8246 22.9744 18.8587 22.4119C17.8984 21.8437 17.157 21.054 16.6342 20.0426C16.1115 19.0256 15.8501 17.8466 15.8501 16.5057C15.8501 15.1534 16.1115 13.9716 16.6342 12.9602C17.157 11.9432 17.8984 11.1534 18.8587 10.5909C19.8246 10.0227 20.9695 9.73864 22.2933 9.73864C23.6172 9.73864 24.7592 10.0227 25.7195 10.5909C26.6854 11.1534 27.4297 11.9432 27.9524 12.9602C28.4751 13.9716 28.7365 15.1534 28.7365 16.5057C28.7365 17.8466 28.4751 19.0256 27.9524 20.0426C27.4297 21.054 26.6854 21.8437 25.7195 22.4119C24.7592 22.9744 23.6172 23.2557 22.2933 23.2557ZM22.3104 20.4432C22.9126 20.4432 23.4155 20.2727 23.8189 19.9318C24.2223 19.5852 24.5263 19.1136 24.7308 18.517C24.9411 17.9205 25.0462 17.2415 25.0462 16.4801C25.0462 15.7188 24.9411 15.0398 24.7308 14.4432C24.5263 13.8466 24.2223 13.375 23.8189 13.0284C23.4155 12.6818 22.9126 12.5085 22.3104 12.5085C21.7024 12.5085 21.1911 12.6818 20.7763 13.0284C20.3672 13.375 20.0575 13.8466 19.8473 14.4432C19.6428 15.0398 19.5405 15.7188 19.5405 16.4801C19.5405 17.2415 19.6428 17.9205 19.8473 18.517C20.0575 19.1136 20.3672 19.5852 20.7763 19.9318C21.1911 20.2727 21.7024 20.4432 22.3104 20.4432ZM31.0291 23V20.8352L37.4382 12.9006V12.8068H31.2507V9.90909H41.8104V12.2699L35.7933 20.0085V20.1023H42.032V23H31.0291ZM48.5412 23.2472C47.706 23.2472 46.9616 23.1023 46.3082 22.8125C45.6548 22.517 45.1378 22.0824 44.7571 21.5085C44.3821 20.929 44.1946 20.2074 44.1946 19.3438C44.1946 18.6165 44.3281 18.0057 44.5952 17.5114C44.8622 17.017 45.2259 16.6193 45.6861 16.3182C46.1463 16.017 46.669 15.7898 47.2543 15.6364C47.8452 15.483 48.4645 15.375 49.1122 15.3125C49.8736 15.233 50.4872 15.1591 50.9531 15.0909C51.419 15.017 51.7571 14.9091 51.9673 14.767C52.1776 14.625 52.2827 14.4148 52.2827 14.1364V14.0852C52.2827 13.5455 52.1122 13.1278 51.7713 12.8324C51.4361 12.5369 50.9588 12.3892 50.3395 12.3892C49.6861 12.3892 49.1662 12.5341 48.7798 12.8239C48.3935 13.108 48.1378 13.4659 48.0128 13.8977L44.6548 13.625C44.8253 12.8295 45.1605 12.142 45.6605 11.5625C46.1605 10.9773 46.8054 10.5284 47.5952 10.2159C48.3906 9.89773 49.3111 9.73864 50.3565 9.73864C51.0838 9.73864 51.7798 9.82386 52.4446 9.99432C53.1151 10.1648 53.7088 10.429 54.2259 10.7869C54.7486 11.1449 55.1605 11.6051 55.4616 12.1676C55.7628 12.7244 55.9134 13.392 55.9134 14.1705V23H52.4702V21.1847H52.3679C52.1577 21.5938 51.8764 21.9545 51.5241 22.267C51.1719 22.5739 50.7486 22.8153 50.2543 22.9915C49.7599 23.1619 49.1889 23.2472 48.5412 23.2472ZM49.581 20.7415C50.1151 20.7415 50.5866 20.6364 50.9957 20.4261C51.4048 20.2102 51.7259 19.9205 51.9588 19.5568C52.1918 19.1932 52.3082 18.7812 52.3082 18.321V16.9318C52.1946 17.0057 52.0384 17.0739 51.8395 17.1364C51.6463 17.1932 51.4276 17.2472 51.1832 17.2983C50.9389 17.3437 50.6946 17.3864 50.4503 17.4261C50.206 17.4602 49.9844 17.4915 49.7855 17.5199C49.3594 17.5824 48.9872 17.6818 48.669 17.8182C48.3509 17.9545 48.1037 18.1392 47.9276 18.3722C47.7514 18.5994 47.6634 18.8835 47.6634 19.2244C47.6634 19.7188 47.8423 20.0966 48.2003 20.358C48.5639 20.6136 49.0241 20.7415 49.581 20.7415ZM58.7301 23V9.90909H62.1903V12.2188H62.3438C62.6165 11.4517 63.071 10.8466 63.7074 10.4034C64.3438 9.96023 65.1051 9.73864 65.9915 9.73864C66.8892 9.73864 67.6534 9.96307 68.2841 10.4119C68.9148 10.8551 69.3352 11.4574 69.5455 12.2188H69.6818C69.9489 11.4688 70.4318 10.8693 71.1307 10.4205C71.8352 9.96591 72.6676 9.73864 73.6278 9.73864C74.8494 9.73864 75.8409 10.1278 76.6023 10.9062C77.3693 11.679 77.7528 12.7756 77.7528 14.196V23H74.1307V14.9119C74.1307 14.1847 73.9375 13.6392 73.5511 13.2756C73.1648 12.9119 72.6818 12.7301 72.1023 12.7301C71.4432 12.7301 70.929 12.9403 70.5597 13.3608C70.1903 13.7756 70.0057 14.3239 70.0057 15.0057V23H66.4858V14.8352C66.4858 14.1932 66.3011 13.6818 65.9318 13.3011C65.5682 12.9205 65.0881 12.7301 64.4915 12.7301C64.0881 12.7301 63.7244 12.8324 63.4006 13.0369C63.0824 13.2358 62.8295 13.517 62.642 13.8807C62.4545 14.2386 62.3608 14.6591 62.3608 15.142V23H58.7301ZM84.3537 23.2472C83.5185 23.2472 82.7741 23.1023 82.1207 22.8125C81.4673 22.517 80.9503 22.0824 80.5696 21.5085C80.1946 20.929 80.0071 20.2074 80.0071 19.3438C80.0071 18.6165 80.1406 18.0057 80.4077 17.5114C80.6747 17.017 81.0384 16.6193 81.4986 16.3182C81.9588 16.017 82.4815 15.7898 83.0668 15.6364C83.6577 15.483 84.277 15.375 84.9247 15.3125C85.6861 15.233 86.2997 15.1591 86.7656 15.0909C87.2315 15.017 87.5696 14.9091 87.7798 14.767C87.9901 14.625 88.0952 14.4148 88.0952 14.1364V14.0852C88.0952 13.5455 87.9247 13.1278 87.5838 12.8324C87.2486 12.5369 86.7713 12.3892 86.152 12.3892C85.4986 12.3892 84.9787 12.5341 84.5923 12.8239C84.206 13.108 83.9503 13.4659 83.8253 13.8977L80.4673 13.625C80.6378 12.8295 80.973 12.142 81.473 11.5625C81.973 10.9773 82.6179 10.5284 83.4077 10.2159C84.2031 9.89773 85.1236 9.73864 86.169 9.73864C86.8963 9.73864 87.5923 9.82386 88.2571 9.99432C88.9276 10.1648 89.5213 10.429 90.0384 10.7869C90.5611 11.1449 90.973 11.6051 91.2741 12.1676C91.5753 12.7244 91.7259 13.392 91.7259 14.1705V23H88.2827V21.1847H88.1804C87.9702 21.5938 87.6889 21.9545 87.3366 22.267C86.9844 22.5739 86.5611 22.8153 86.0668 22.9915C85.5724 23.1619 85.0014 23.2472 84.3537 23.2472ZM85.3935 20.7415C85.9276 20.7415 86.3991 20.6364 86.8082 20.4261C87.2173 20.2102 87.5384 19.9205 87.7713 19.5568C88.0043 19.1932 88.1207 18.7812 88.1207 18.321V16.9318C88.0071 17.0057 87.8509 17.0739 87.652 17.1364C87.4588 17.1932 87.2401 17.2472 86.9957 17.2983C86.7514 17.3437 86.5071 17.3864 86.2628 17.4261C86.0185 17.4602 85.7969 17.4915 85.598 17.5199C85.1719 17.5824 84.7997 17.6818 84.4815 17.8182C84.1634 17.9545 83.9162 18.1392 83.7401 18.3722C83.5639 18.5994 83.4759 18.8835 83.4759 19.2244C83.4759 19.7188 83.6548 20.0966 84.0128 20.358C84.3764 20.6136 84.8366 20.7415 85.3935 20.7415Z" fill="white"/>
<path d="M39.4806 26.9856C38.3681 26.1679 36.8033 26.4069 35.9856 27.5194C35.1679 28.6319 35.4069 30.1967 36.5194 31.0144L38 29L39.4806 26.9856ZM38 29L36.5194 31.0144C40.8997 34.234 48.4166 38.0547 56.9462 39.1758C65.5574 40.3077 75.3053 38.6862 83.7079 30.8257L82 29L80.2921 27.1743C73.2067 33.8026 65.0612 35.1995 57.5978 34.2185C50.0527 33.2267 43.3136 29.803 39.4806 26.9856L38 29Z" fill="#BA8021"/>
<path d="M82.2281 34.8261L82.2151 28.5659L76 28.5529" stroke="#BA8021" stroke-width="3" stroke-miterlimit="3.99393" stroke-linecap="round" stroke-linejoin="round"/>
</svg>
